{"asset":{"version":"2.0","generator":"THREE.GLTFExporter"},"scenes":[{"name":"AuxScene","nodes":[3]}],"scene":0,"nodes":[{"name":"Mesh_sodaBottle","mesh":0},{"name":"Mesh_sodaBottle_1","mesh":1},{"name":"sodaBottle","extras":{"name":"sodaBottle"},"children":[0,1]},{"children":[2]}],"bufferViews":[{"buffer":0,"byteOffset":0,"byteLength":1224,"target":34962,"byteStride":12},{"buffer":0,"byteOffset":1224,"byteLength":1224,"target":34962,"byteStride":12},{"buffer":0,"byteOffset":2448,"byteLength":816,"target":34962,"byteStride":8},{"buffer":0,"byteOffset":3264,"byteLength":624,"target":34963},{"buffer":0,"byteOffset":3888,"byteLength":792,"target":34962,"byteStride":12},{"buffer":0,"byteOffset":4680,"byteLength":792,"target":34962,"byteStride":12},{"buffer":0,"byteOffset":5472,"byteLength":528,"target":34962,"byteStride":8},{"buffer":0,"byteOffset":6000,"byteLength":480,"target":34963}],"buffers":[{"byteLength":6480,"uri":"data:application/octet-stream;base64,"}],"accessors":[{"bufferView":0,"componentType":5126,"count":102,"max":[0.0902583971619606,0.5204119682312012,0.07819706946611404],"min":[-0.09024599939584732,0,-0.07815533131361008],"type":"VEC3"},{"bufferView":1,"componentType":5126,"count":102,"max":[0.8588975667953491,0.38023287057876587,0.9955340027809143],"min":[-0.8588975667953491,-1,-0.9955339431762695],"type":"VEC3"},{"bufferView":2,"componentType":5126,"count":102,"max":[2.7408275604248047,3.378206253051758],"min":[-2.7461161613464355,-19.164539337158203],"type":"VEC2"},{"bufferView":3,"componentType":5125,"count":156,"max":[101],"min":[0],"type":"SCALAR"},{"bufferView":4,"componentType":5126,"count":66,"max":[0.08343008160591125,0.5604119896888733,0.0721726194024086],"min":[-0.08341407775878906,0.15041200816631317,-0.07223870605230331],"type":"VEC3"},{"bufferView":5,"componentType":5126,"count":66,"max":[0.8695613741874695,1,1],"min":[-0.8695613741874695,-1,-1],"type":"VEC3"},{"bufferView":6,"componentType":5126,"count":66,"max":[1.639250636100769,2.247152328491211],"min":[-1.6420093774795532,-21.063465118408203],"type":"VEC2"},{"bufferView":7,"componentType":5125,"count":120,"max":[65],"min":[0],"type":"SCALAR"}],"materials":[{"pbrMetallicRoughness":{"baseColorFactor":[0.7529411764705882,0.5647058823529412,0.1843137254901961,1],"metallicFactor":1,"roughnessFactor":1},"emissiveFactor":[0.11764705882352941,0.01568627450980392,0.00392156862745098],"alphaMode":"BLEND","name":"brownDark"},{"pbrMetallicRoughness":{"baseColorFactor":[0.3803921568627451,0.9058823529411765,0.3254901960784314,1],"metallicFactor":1,"roughnessFactor":1},"alphaMode":"BLEND","name":"red"}],"meshes":[{"primitives":[{"mode":4,"attributes":{"POSITION":0,"NORMAL":1,"TEXCOORD_0":2},"indices":3,"material":0}]},{"primitives":[{"mode":4,"attributes":{"POSITION":4,"NORMAL":5,"TEXCOORD_0":6},"indices":7,"material":1}]}]}